<?xml version="1.0" encoding="UTF-8" standalone="no"?>
<!-- Created with Inkscape (http://www.inkscape.org/) -->

<svg
   xmlns:dc="http://purl.org/dc/elements/1.1/"
   xmlns:cc="http://creativecommons.org/ns#"
   xmlns:rdf="http://www.w3.org/1999/02/22-rdf-syntax-ns#"
   xmlns:svg="http://www.w3.org/2000/svg"
   xmlns="http://www.w3.org/2000/svg"
   xmlns:sodipodi="http://sodipodi.sourceforge.net/DTD/sodipodi-0.dtd"
   xmlns:inkscape="http://www.inkscape.org/namespaces/inkscape"
   width="400"
   height="250"
   viewBox="0 0 105.83332 66.145835"
   version="1.1"
   id="svg8"
   inkscape:version="0.92.3 (2405546, 2018-03-11)"
   sodipodi:docname="logo.svg">
  <defs
     id="defs2" />
  <sodipodi:namedview
     id="base"
     pagecolor="#ffffff"
     bordercolor="#666666"
     borderopacity="1.0"
     inkscape:pageopacity="0.0"
     inkscape:pageshadow="2"
     inkscape:zoom="1.4"
     inkscape:cx="-29.126669"
     inkscape:cy="133.23085"
     inkscape:document-units="mm"
     inkscape:current-layer="layer1"
     showgrid="false"
     units="px"
     borderlayer="true"
     inkscape:window-width="1920"
     inkscape:window-height="1052"
     inkscape:window-x="0"
     inkscape:window-y="0"
     inkscape:window-maximized="1"
     showguides="true"
     inkscape:guide-bbox="true">
    <sodipodi:guide
       position="51.026785,87.312498"
       orientation="1,0"
       id="guide4020"
       inkscape:locked="false" />
  </sodipodi:namedview>
  <metadata
     id="metadata5">
    <rdf:RDF>
      <cc:Work
         rdf:about="">
        <dc:format>image/svg+xml</dc:format>
        <dc:type
           rdf:resource="http://purl.org/dc/dcmitype/StillImage" />
        <dc:title></dc:title>
      </cc:Work>
    </rdf:RDF>
  </metadata>
  <g
     inkscape:label="Layer 1"
     inkscape:groupmode="layer"
     id="layer1"
     transform="translate(0,-230.85415)">
    <g
       id="g3936"
       transform="matrix(0.65050852,0,0,0.66548331,33.137801,233.33651)">
      <g
         id="g3867">
        <g
           id="g3843">
          <rect
             x="1"
             y="4.5089998"
             style="fill:#ecf0f1"
             width="55"
             height="42"
             id="rect3839" />
          <path
             inkscape:connector-curvature="0"
             style="fill:#545e73"
             d="M 57,47.509 H 0 v -44 h 57 z m -55,-2 h 53 v -40 H 2 Z"
             id="path3841" />
        </g>
        <g
           id="g3849">
          <rect
             x="5"
             y="8.5089998"
             style="fill:#545e73"
             width="47"
             height="34"
             id="rect3845" />
          <path
             inkscape:connector-curvature="0"
             style="fill:#ecf0f1"
             d="M 53,43.509 H 4 v -36 h 49 z m -47,-2 h 45 v -32 H 6 Z"
             id="path3847" />
        </g>
        <circle
           style="fill:#f3d55a"
           cx="15"
           cy="17.077999"
           r="4.5689998"
           id="circle3851" />
        <polygon
           style="fill:#11a085"
           points="38,20.509 27.5,32.009 32.983,37.492 37,41.509 51,41.509 51,32.62 50,31.509 "
           id="polygon3853" />
        <polygon
           style="fill:#26b999"
           points="22.017,26.526 6,40.509 6,41.509 37,41.509 32.983,37.492 "
           id="polygon3855" />
        <g
           id="g3865">
          <circle
             id="circle3859"
             r="9.7959995"
             cy="41.305"
             cx="45.777"
             style="fill:#d0e8f9" />
          <path
             id="path3861"
             d="M 49.33,32.184 36.656,44.858 c 0.706,1.81 1.93,3.357 3.495,4.459 L 53.789,35.679 C 52.687,34.113 51.14,32.889 49.33,32.184 Z"
             style="fill:#eaf6fd"
             inkscape:connector-curvature="0" />
          <path
             id="path3863"
             d="m 59.723,54.8 -5.97,-6.244 c 1.746,-1.919 2.82,-4.458 2.82,-7.251 0,-5.953 -4.843,-10.796 -10.796,-10.796 -5.953,0 -10.796,4.843 -10.796,10.796 0,5.953 4.843,10.796 10.796,10.796 2.442,0 4.689,-0.824 6.499,-2.196 l 6.001,6.276 c 0.196,0.206 0.459,0.309 0.723,0.309 0.249,0 0.497,-0.092 0.691,-0.277 0.399,-0.381 0.414,-1.014 0.032,-1.413 z M 36.982,41.305 c 0,-4.85 3.946,-8.796 8.796,-8.796 4.85,0 8.796,3.946 8.796,8.796 0,4.85 -3.946,8.796 -8.796,8.796 -4.85,0 -8.796,-3.946 -8.796,-8.796 z"
             style="fill:#b1d3ef"
             inkscape:connector-curvature="0" />
        </g>
      </g>
      <g
         id="g3869" />
      <g
         id="g3871" />
      <g
         id="g3873" />
      <g
         id="g3875" />
      <g
         id="g3877" />
      <g
         id="g3879" />
      <g
         id="g3881" />
      <g
         id="g3883" />
      <g
         id="g3885" />
      <g
         id="g3887" />
      <g
         id="g3889" />
      <g
         id="g3891" />
      <g
         id="g3893" />
      <g
         id="g3895" />
      <g
         id="g3897" />
    </g>
    <flowRoot
       xml:space="preserve"
       id="flowRoot4022"
       style="font-style:normal;font-variant:normal;font-weight:normal;font-stretch:normal;font-size:40px;line-height:1.25;font-family:Ubuntu;-inkscape-font-specification:Ubuntu;letter-spacing:0px;word-spacing:0px;fill:#000000;fill-opacity:1;stroke:none"
       transform="matrix(0.26458322,0,0,0.26458322,-17.651471,229.73913)"><flowRegion
         id="flowRegion4024"
         style="font-style:normal;font-variant:normal;font-weight:normal;font-stretch:normal;font-family:Ubuntu;-inkscape-font-specification:Ubuntu"><rect
           id="rect4026"
           width="372.85715"
           height="76.428574"
           x="94.642853"
           y="173.5"
           style="font-style:normal;font-variant:normal;font-weight:normal;font-stretch:normal;font-family:Ubuntu;-inkscape-font-specification:Ubuntu" /></flowRegion><flowPara
         id="flowPara4028"
         style="font-style:normal;font-variant:normal;font-weight:normal;font-stretch:normal;font-size:64.00003052px;font-family:Ubuntu;-inkscape-font-specification:Ubuntu;fill:#2980b9;fill-opacity:1">imagelearn</flowPara></flowRoot>  </g>
</svg>
